<svg 
 xmlns="http://www.w3.org/2000/svg"
 xmlns:xlink="http://www.w3.org/1999/xlink"
 width="13px" height="24px">
<path fill-rule="evenodd"  fill="rgb(255, 255, 255)"
 d="M8.117,2.046 C8.206,2.046 8.258,2.049 8.258,2.049 L10.219,2.049 L10.208,4.310 L8.261,4.310 C7.189,4.310 7.214,5.228 7.214,5.228 L7.214,8.811 L11.006,8.811 L10.477,11.068 L7.201,11.068 L7.201,22.364 L4.951,22.364 L4.949,11.068 L1.959,11.068 L1.953,8.811 L4.951,8.811 C4.951,8.811 4.951,6.047 4.951,5.298 C4.951,2.236 7.486,2.046 8.117,2.046 M10.219,2.049 L10.222,2.049 M8.117,0.539 L8.117,0.539 C7.577,0.539 6.522,0.629 5.523,1.233 C4.576,1.804 3.449,2.973 3.449,5.298 L3.449,7.304 L1.953,7.304 C1.554,7.304 1.172,7.464 0.889,7.747 C0.608,8.031 0.450,8.415 0.452,8.816 L0.457,11.074 C0.460,11.903 1.132,12.575 1.959,12.575 L3.447,12.575 L3.449,22.364 C3.449,23.197 4.121,23.871 4.951,23.871 L7.201,23.871 C8.030,23.871 8.703,23.197 8.703,22.364 L8.703,12.575 L10.477,12.575 C11.143,12.575 11.730,12.134 11.918,11.493 L12.447,9.236 C12.581,8.780 12.492,8.288 12.208,7.908 C11.925,7.528 11.479,7.304 11.006,7.304 L8.715,7.304 L8.715,5.817 L10.208,5.817 C11.035,5.817 11.707,5.146 11.710,4.316 L11.721,2.133 C11.722,2.104 11.723,2.077 11.723,2.049 C11.723,1.217 11.052,0.543 10.222,0.543 L10.219,0.543 L8.300,0.543 C8.257,0.540 8.195,0.539 8.117,0.539 L8.117,0.539 Z"/>
</svg>