<svg 
 xmlns="http://www.w3.org/2000/svg"
 xmlns:xlink="http://www.w3.org/1999/xlink"
 width="23px" height="19px">
<path fill-rule="evenodd"  fill="rgb(255, 255, 255)"
 d="M15.544,1.730 C16.707,1.730 17.756,2.205 18.495,2.967 C19.415,2.790 20.282,2.466 21.061,2.018 C20.759,2.931 20.118,3.698 19.284,4.183 C20.100,4.087 20.881,3.878 21.606,3.565 C21.063,4.349 20.379,5.040 19.589,5.592 C19.596,5.759 19.600,5.929 19.600,6.097 C19.600,11.271 15.534,17.236 8.098,17.236 C5.816,17.236 3.690,16.586 1.902,15.476 C2.218,15.513 2.539,15.531 2.866,15.531 C4.759,15.531 6.503,14.906 7.887,13.855 C6.117,13.824 4.623,12.692 4.111,11.137 C4.357,11.183 4.611,11.208 4.872,11.208 C5.239,11.208 5.597,11.160 5.936,11.070 C4.087,10.712 2.693,9.130 2.693,7.232 C2.693,7.215 2.693,7.199 2.693,7.182 C3.239,7.476 3.862,7.652 4.525,7.672 C3.440,6.969 2.726,5.773 2.726,4.414 C2.726,3.696 2.926,3.024 3.274,2.448 C5.267,4.813 8.246,6.372 11.606,6.537 C11.537,6.251 11.501,5.949 11.501,5.645 C11.501,3.482 13.311,1.730 15.544,1.730 M21.606,3.565 L21.609,3.565 M15.544,0.326 C12.782,0.326 10.494,2.341 10.142,4.944 C7.882,4.491 5.827,3.296 4.350,1.544 C4.082,1.225 3.687,1.043 3.274,1.043 C3.237,1.043 3.200,1.045 3.163,1.047 C2.710,1.083 2.303,1.335 2.069,1.723 C1.578,2.535 1.319,3.466 1.319,4.414 C1.319,5.047 1.433,5.664 1.649,6.241 C1.419,6.496 1.286,6.830 1.286,7.182 L1.286,7.232 C1.286,8.608 1.831,9.884 2.736,10.841 C2.684,11.081 2.695,11.334 2.775,11.576 C3.087,12.523 3.655,13.340 4.391,13.962 C3.897,14.071 3.386,14.127 2.866,14.127 C2.590,14.127 2.322,14.112 2.069,14.081 C2.012,14.075 1.957,14.071 1.901,14.071 C1.310,14.071 0.774,14.443 0.575,15.010 C0.356,15.631 0.599,16.321 1.159,16.668 C3.236,17.959 5.636,18.641 8.098,18.641 C16.099,18.641 20.912,12.387 21.006,6.278 C21.661,5.737 22.239,5.111 22.730,4.410 C22.909,4.175 23.015,3.882 23.015,3.565 C23.015,3.087 22.776,2.664 22.411,2.411 C22.569,1.870 22.388,1.285 21.949,0.928 C21.692,0.720 21.377,0.613 21.061,0.613 C20.819,0.613 20.576,0.675 20.358,0.801 C19.893,1.069 19.396,1.280 18.872,1.433 C17.925,0.722 16.751,0.326 15.544,0.326 L15.544,0.326 Z"/>
</svg>