<svg 
 xmlns="http://www.w3.org/2000/svg"
 xmlns:xlink="http://www.w3.org/1999/xlink"
 width="25px" height="25px">
<path fill-rule="evenodd"  fill="rgb(255, 255, 255)"
 d="M17.347,23.248 C17.337,23.253 17.328,23.257 17.318,23.262 C15.781,24.004 14.068,24.432 12.254,24.432 C5.743,24.432 0.446,19.072 0.446,12.483 C0.446,7.551 3.414,3.308 7.637,1.486 C7.656,1.478 7.672,1.469 7.691,1.463 C9.096,0.865 10.637,0.533 12.254,0.533 C18.766,0.533 24.063,5.893 24.063,12.483 C24.063,17.225 21.312,21.319 17.347,23.248 ZM17.597,21.415 C20.108,19.871 21.908,17.277 22.422,14.241 C21.726,14.037 19.027,13.376 15.615,14.062 C16.851,17.278 17.383,19.975 17.597,21.415 ZM16.203,22.141 C16.056,20.999 15.561,18.026 14.163,14.427 C13.544,14.616 12.911,14.849 12.267,15.144 C7.986,17.107 6.270,19.979 5.891,20.703 C7.647,22.098 9.854,22.938 12.254,22.938 C13.653,22.938 14.985,22.652 16.203,22.141 ZM1.923,12.483 C1.923,15.268 3.011,17.795 4.771,19.671 C5.473,18.465 7.442,15.715 11.659,13.783 C12.317,13.481 12.963,13.242 13.596,13.041 C13.320,12.412 13.019,11.771 12.685,11.120 C12.615,10.984 12.551,10.868 12.482,10.736 C8.995,11.840 5.976,12.098 3.972,12.098 C3.084,12.098 2.403,12.049 1.957,12.005 C1.950,12.165 1.923,12.320 1.923,12.483 ZM2.130,10.517 C3.448,10.640 7.181,10.794 11.771,9.395 C9.823,5.826 8.370,3.873 7.740,3.093 C4.865,4.515 2.751,7.249 2.130,10.517 ZM12.254,2.027 C11.180,2.027 10.143,2.195 9.168,2.505 C9.960,3.531 11.374,5.546 13.195,8.913 C17.245,7.374 18.500,5.257 18.843,4.437 C17.053,2.933 14.757,2.027 12.254,2.027 ZM19.955,5.537 C19.288,6.781 17.675,8.765 13.895,10.242 C13.929,10.308 13.960,10.365 13.994,10.431 C14.383,11.187 14.719,11.924 15.032,12.648 C18.573,11.860 21.437,12.426 22.570,12.730 C22.572,12.647 22.587,12.567 22.587,12.483 C22.587,9.816 21.586,7.386 19.955,5.537 Z"/>
</svg>